<svg width="12" height="10" viewBox="0 0 12 10" fill="none" xmlns="http://www.w3.org/2000/svg">
<path d="M11.6161 0.36627C11.3978 0.187103 11.1196 0.100953 10.8413 0.130815C10.5607 0.157806 10.3079 0.292188 10.1289 0.508108L4.49548 7.29712L1.85024 4.87197C1.58235 4.57107 1.16092 4.44529 0.771815 4.55498C0.381549 4.66294 0.085964 4.98912 0.0155322 5.3848C-0.053741 5.78047 0.113678 6.18705 0.418497 6.4024L3.90085 9.59763C4.09368 9.77393 4.34423 9.87271 4.60633 9.875L4.67908 9.87442C4.96773 9.85432 5.23907 9.71536 5.42266 9.49311L11.7592 1.84616C12.1299 1.39823 12.0652 0.734378 11.6161 0.36627Z" fill="#BD71FF"/>
</svg>
